<svg xmlns="http://www.w3.org/2000/svg" width="70" height="49"><path fill="#52CC52" d="M68.258.302H41.113A7.715 7.715 0 0 0 35 3.316 7.715 7.715 0 0 0 28.887.294H1.742c-.9 0-1.628.731-1.628 1.633v39.004a1.63 1.63 0 0 0 1.628 1.634h27.145a4.5 4.5 0 0 1 4.485 4.5A1.63 1.63 0 0 0 35 48.698c.9 0 1.628-.731 1.628-1.633a4.5 4.5 0 0 1 4.485-4.5h27.145c.9 0 1.628-.732 1.628-1.634V1.936A1.63 1.63 0 0 0 68.258.301zM66.63 39.306H41.113A7.715 7.715 0 0 0 35 42.32a7.715 7.715 0 0 0-6.113-3.022H3.37V3.568h25.517a4.5 4.5 0 0 1 4.485 4.5v21.618A1.63 1.63 0 0 0 35 31.319c.9 0 1.628-.731 1.628-1.633V8.069a4.5 4.5 0 0 1 4.485-4.5H66.63v35.737zM26.047 11.433a1.63 1.63 0 0 1-1.628 1.634H10.402a1.63 1.63 0 0 1-1.628-1.634A1.63 1.63 0 0 1 10.402 9.8H24.42a1.63 1.63 0 0 1 1.628 1.633zm0 9.972a1.63 1.63 0 0 1-1.628 1.633H10.402a1.63 1.63 0 0 1-1.628-1.633 1.63 1.63 0 0 1 1.628-1.634H24.42a1.636 1.636 0 0 1 1.628 1.658v-.024zm0 9.971a1.63 1.63 0 0 1-1.628 1.634H10.402a1.63 1.63 0 0 1-1.628-1.634 1.63 1.63 0 0 1 1.628-1.633H24.42c.436 0 .853.175 1.16.487.305.312.474.733.468 1.17v-.024zm17.377-19.943A1.63 1.63 0 0 1 45.052 9.8H59.07a1.63 1.63 0 0 1 1.628 1.633 1.63 1.63 0 0 1-1.628 1.634H45.052a1.63 1.63 0 0 1-1.628-1.634zm0 9.972a1.63 1.63 0 0 1 1.628-1.634H59.07c.899 0 1.628.732 1.628 1.634a1.63 1.63 0 0 1-1.628 1.633H45.052a1.63 1.63 0 0 1-1.628-1.609v-.024zm0 9.971a1.63 1.63 0 0 1 1.628-1.633H59.07a1.63 1.63 0 0 1 1.628 1.633 1.63 1.63 0 0 1-1.628 1.634H45.052a1.63 1.63 0 0 1-1.628-1.61v-.024z"/></svg>