<svg xmlns="http://www.w3.org/2000/svg" width="40" height="40"><defs><linearGradient id="a" x1="15.468%" x2="84.51%" y1="16.831%" y2="76.361%"><stop offset="0%" stop-color="#FFF"/><stop offset="100%" stop-color="#E8F3FF"/></linearGradient></defs><g fill="none"><rect width="40" height="40" fill="#0079FF" rx="20"/><path fill="url(#a)" d="M12.667 0c6.995 0 12.666 5.665 12.666 12.654 0 6.99-5.67 12.655-12.666 12.655a12.68 12.68 0 0 1-3.634-.53L4.72 27.333v-4.825A12.625 12.625 0 0 1 0 12.654C0 5.665 5.671 0 12.667 0zm6.131 14.698a.739.739 0 0 0-.917.51c-.673 2.331-2.816 3.96-5.214 3.96-2.398 0-4.544-1.629-5.215-3.96a.736.736 0 0 0-.919-.51.75.75 0 0 0-.503.93c.854 2.965 3.584 5.039 6.637 5.039 3.052 0 5.78-2.074 6.637-5.04a.752.752 0 0 0-.506-.929z" transform="translate(7.333 7.333)"/></g></svg>