<svg xmlns="http://www.w3.org/2000/svg" width="57" height="66"><path fill="$blue-4" d="M56.608 17.425a1.445 1.445 0 0 0 0-.258v-.086a1.44 1.44 0 0 0-.128-.301 1.431 1.431 0 0 0-.257-.28l-.064-.065a1.426 1.426 0 0 0-.206-.157h-.043L29.213.718h-.058a1.42 1.42 0 0 0-.235-.101h-.092A1.417 1.417 0 0 0 28.5.531a1.416 1.416 0 0 0-.32.043h-.093a1.42 1.42 0 0 0-.235.1l-.064.043L1.09 16.242h-.043a1.427 1.427 0 0 0-.206.165l-.064.093a1.43 1.43 0 0 0-.186.244 1.44 1.44 0 0 0-.128.308v.086a1.445 1.445 0 0 0 0 .266v31.171a1.445 1.445 0 0 0 0 .258v.093c.03.108.074.211.128.309.056.096.123.185.2.265l.071.065c.062.058.129.11.2.157l.05.036 26.676 15.525h.056c.076.04.154.074.236.1h.085c.22.059.45.059.67 0h.085c.082-.026.16-.06.235-.1h.057L55.91 49.758l.285-.258c.17-.168.292-.379.356-.61v-.093a1.445 1.445 0 0 0 0-.258V17.483s.064-.036.057-.058zm-53.38 2.526 17.727 10.18c.443.256.988.255 1.43-.003.441-.258.713-.734.712-1.249a1.442 1.442 0 0 0-.717-1.245L4.674 17.476 27.075 4.448v27.72L3.228 46.035V19.951zm26.697 41.601v-20.61a1.43 1.43 0 0 0-1.425-1.435 1.43 1.43 0 0 0-1.425 1.435v20.61L4.653 48.517 28.5 34.657l23.847 13.86-22.422 13.035zm23.847-15.517L29.925 32.168V4.448l22.43 13.042-17.286 10.122a1.436 1.436 0 0 0-.764 1.252 1.437 1.437 0 0 0 .73 1.273c.457.256 1.018.24 1.46-.042l17.27-10.116v26.056h.007z"/></svg>