<svg xmlns="http://www.w3.org/2000/svg" width="58" height="58"><path fill="#AFCE2B" d="m45.928 9.683-2.525-6.251a5.184 5.184 0 0 0-2.79-2.91 5.166 5.166 0 0 0-4.02-.05L14.63 9.466h-.395c-7.8 0-14.147 6.27-14.147 13.977v20.493c0 7.707 6.347 13.977 14.147 13.977h29.528c7.8 0 14.146-6.27 14.146-13.977V23.442c0-6.974-5.212-12.723-11.98-13.76zm-8.1-6.18a1.899 1.899 0 0 1 1.481.019 1.95 1.95 0 0 1 1.047 1.11l1.953 4.833H23.267l14.561-5.962zM54.636 39.86h-14.28a3.88 3.88 0 0 1-3.875-3.875v-4.596a3.88 3.88 0 0 1 3.875-3.875h14.28V39.86zm0-15.62h-14.28c-3.94 0-7.15 3.208-7.15 7.152v4.595c0 3.941 3.207 7.151 7.15 7.151h14.28v.8c0 5.901-4.876 10.701-10.87 10.701H14.234c-5.995 0-10.871-4.8-10.871-10.702V23.442c0-5.902 4.876-10.702 10.87-10.702h29.529c5.994 0 10.87 4.8 10.87 10.702v.799h.003z"/></svg>