<svg xmlns="http://www.w3.org/2000/svg" width="30" height="30" viewBox="0 0 30 30">
  <defs>
    <linearGradient id="a" x1="15.468%" x2="84.51%" y1="16.831%" y2="76.361%">
      <stop offset="0%" stop-color="#FFF"/>
      <stop offset="100%" stop-color="#E8F3FF"/>
    </linearGradient>
  </defs>
  <g fill="none" fill-rule="nonzero">
    <rect width="30" height="30" fill="#0079FF" rx="15"/>
    <path fill="url(#a)" d="M9.5 0C14.747 0 19 4.25 19 9.49c0 5.242-4.253 9.491-9.5 9.491a9.51 9.51 0 0 1-2.725-.396L3.54 20.5v-3.619A9.469 9.469 0 0 1 0 9.491C0 4.249 4.253 0 9.5 0zm4.599 11.024a.554.554 0 0 0-.688.381c-.505 1.75-2.112 2.97-3.91 2.97-1.8 0-3.408-1.22-3.912-2.97a.552.552 0 0 0-.689-.381.563.563 0 0 0-.378.696c.641 2.225 2.689 3.78 4.978 3.78 2.29 0 4.336-1.555 4.978-3.78a.564.564 0 0 0-.38-.696z" transform="translate(5.5 5.5)"/>
  </g>
</svg>
