<svg xmlns="http://www.w3.org/2000/svg" width="40" height="43" viewBox="0 0 40 43">
    <defs>
        <linearGradient id="a" x1="15.468%" x2="84.51%" y1="16.831%" y2="76.361%">
            <stop offset="0%" stop-color="#FFF"/>
            <stop offset="100%" stop-color="#E8F3FF"/>
        </linearGradient>
    </defs>
    <path fill="url(#a)" fill-rule="nonzero" d="M20 0c11.046 0 20 8.913 20 19.907 0 10.995-8.954 19.908-20 19.908a20.09 20.09 0 0 1-5.737-.833L7.453 43v-7.59C2.908 31.76 0 26.172 0 19.907 0 8.913 8.954 0 20 0zm9.682 23.123c-.618-.189-1.267.18-1.45.8-1.06 3.669-4.446 6.231-8.232 6.231-3.786 0-7.174-2.562-8.234-6.23-.18-.621-.822-.99-1.45-.801a1.18 1.18 0 0 0-.795 1.461c1.348 4.666 5.66 7.928 10.48 7.928 4.818 0 9.127-3.262 10.478-7.928a1.182 1.182 0 0 0-.797-1.461z"/>
</svg>