<svg xmlns="http://www.w3.org/2000/svg" width="23" height="23" viewBox="0 0 23 23">
  <path fill="#0C8AFF" fill-rule="nonzero" d="M11.5.418C5.39.418.418 5.39.418 11.5c0 6.11 4.971 11.082 11.082 11.082 6.11 0 11.082-4.971 11.082-11.082C22.582 5.39 17.61.418 11.5.418zm0 20.91c-5.42 0-9.827-4.41-9.827-9.828 0-5.419 4.407-9.827 9.827-9.827s9.827 4.408 9.827 9.827-4.407 9.827-9.827 9.827zm3.616-7.098a.627.627 0 0 1-.886.886l-3.173-3.173a.624.624 0 0 1-.184-.443V4.371a.628.628 0 0 1 1.254 0v6.869l2.99 2.99z"/>
</svg>