<svg xmlns="http://www.w3.org/2000/svg" width="25" height="25" viewBox="0 0 25 25">
  <path fill="#0586FF" fill-rule="nonzero" d="M24.85 10.974a1.06 1.06 0 0 0-1.137-.92l-1.645.13a1.17 1.17 0 0 1-1.182-.735l-.201-.506a1.168 1.168 0 0 1 .338-1.344l1.284-1.037c.445-.36.527-1.007.184-1.465a12.287 12.287 0 0 0-2.32-2.398 1.068 1.068 0 0 0-1.472.148l-1.085 1.252c-.333.393-.884.52-1.355.316l-.498-.213A1.168 1.168 0 0 1 15.057 3l.173-1.64a1.068 1.068 0 0 0-.909-1.167 12.37 12.37 0 0 0-3.358-.042 1.057 1.057 0 0 0-.92 1.136l.13 1.645c.043.512-.255.992-.733 1.182l-.505.201a1.168 1.168 0 0 1-1.338-.338L6.562 2.685A1.065 1.065 0 0 0 5.095 2.5c-.9.664-1.706 1.448-2.395 2.33-.36.45-.297 1.104.142 1.477l1.256 1.08c.392.332.52.883.315 1.354l-.213.5A1.165 1.165 0 0 1 3 9.943L1.36 9.77a1.068 1.068 0 0 0-1.167.909 12.338 12.338 0 0 0-.042 3.358c.07.562.572.967 1.136.92l1.645-.13c.512-.043.992.255 1.182.733l.201.505c.19.472.053 1.011-.338 1.336l-1.284 1.037a1.068 1.068 0 0 0-.184 1.468c.661.9 1.442 1.706 2.32 2.395.45.358 1.102.295 1.475-.142l1.082-1.258c.333-.393.884-.52 1.355-.316l.498.213c.474.202.76.69.704 1.202l-.173 1.64c-.06.57.342 1.085.909 1.167a12.36 12.36 0 0 0 3.358.042 1.06 1.06 0 0 0 .92-1.136l-.13-1.642a1.168 1.168 0 0 1 .733-1.182l.505-.201a1.168 1.168 0 0 1 1.338.335l1.037 1.281c.361.446 1.01.527 1.47.185A12.355 12.355 0 0 0 22.3 20.17a1.068 1.068 0 0 0-.142-1.477l-1.258-1.08a1.168 1.168 0 0 1-.316-1.354l.213-.498A1.17 1.17 0 0 1 22 15.057l1.64.173a1.071 1.071 0 0 0 1.167-.909c.167-1.108.18-2.234.042-3.347zM23.692 14.1l-1.574-.167a2.298 2.298 0 0 0-2.363 1.383l-.213.498a2.298 2.298 0 0 0 .627 2.676l1.202 1.025a11.216 11.216 0 0 1-2.085 2.034l-.994-1.23a2.298 2.298 0 0 0-2.668-.69l-.506.202a2.298 2.298 0 0 0-1.437 2.33l.125 1.573c-.97.114-1.95.1-2.915-.04l.168-1.57a2.298 2.298 0 0 0-1.384-2.364l-.497-.214a2.298 2.298 0 0 0-2.67.625l-1.026 1.196a11.207 11.207 0 0 1-2.034-2.085l1.23-.997a2.298 2.298 0 0 0 .693-2.659l-.202-.506a2.298 2.298 0 0 0-2.33-1.434l-1.579.125c-.113-.969-.1-1.947.04-2.912l1.571.165a2.295 2.295 0 0 0 2.364-1.384l.216-.5c.403-.93.15-2.013-.622-2.668L3.628 5.486a11.21 11.21 0 0 1 2.088-2.034l.991 1.227a2.298 2.298 0 0 0 2.668.693l.506-.202a2.298 2.298 0 0 0 1.437-2.33l-.125-1.576c.968-.113 1.947-.1 2.912.04l-.168 1.571a2.298 2.298 0 0 0 1.384 2.364l.497.213c.93.404 2.015.151 2.67-.622l1.026-1.202c.766.603 1.45 1.304 2.034 2.085l-1.23.997a2.298 2.298 0 0 0-.693 2.665l.202.506a2.295 2.295 0 0 0 2.332 1.434l1.58-.125c.112.97.097 1.95-.046 2.915V14.1zM12.5 8.034a4.466 4.466 0 1 0 0 8.932 4.466 4.466 0 0 0 0-8.932zm0 7.793a3.33 3.33 0 1 1 3.33-3.327 3.332 3.332 0 0 1-3.33 3.33v-.003z"/>
</svg>