<svg xmlns="http://www.w3.org/2000/svg" width="61" height="56" viewBox="0 0 61 56">
  <path fill="#50E3C2" fill-rule="nonzero" d="M60.58 53.63c0 1.073-.85 1.94-1.894 1.94H5.048C2.265 55.57 0 53.25 0 50.4V1.938C0 .866.849 0 1.893 0s1.893.866 1.893 1.938V50.4c0 .714.568 1.292 1.262 1.292h53.638c1.045 0 1.893.866 1.893 1.939zm-47.3-14.415c.483 0 .969-.19 1.338-.569l14.113-14.45a1.244 1.244 0 0 1 1.786 0l4.856 4.971c1.905 1.952 5.23 1.952 7.137 0l12.952-13.262v6.226c0 1.072.848 1.938 1.893 1.938 1.044 0 1.893-.869 1.893-1.938V11.227c0-.252-.05-.504-.145-.74a1.927 1.927 0 0 0-1.023-1.05 1.867 1.867 0 0 0-.722-.149H46.709c-1.044 0-1.893.87-1.893 1.939 0 1.07.849 1.938 1.893 1.938h6.08L39.84 26.425a1.244 1.244 0 0 1-1.785 0l-4.856-4.973a4.967 4.967 0 0 0-7.137 0L11.949 35.904a1.975 1.975 0 0 0 0 2.742c.366.378.848.57 1.331.57z"/>
</svg>