<svg xmlns="http://www.w3.org/2000/svg" width="23" height="25" viewBox="0 0 23 25">
  <path fill="#138DFF" fill-rule="nonzero" d="M18.48 16.34a.57.57 0 0 0 .814 0 .586.586 0 0 0 0-.823l-7.25-7.331V.796a.578.578 0 0 0-.576-.58.578.578 0 0 0-.575.58v6.227l-2.69-2.72a.57.57 0 0 0-.814 0 .586.586 0 0 0 0 .822l.842.852-6.653 6.726a5.016 5.016 0 0 0 0 7.038l2.447 2.474a4.89 4.89 0 0 0 6.96 0l6.656-6.727.84.852zm-8.305 5.055a3.746 3.746 0 0 1-5.334 0L2.393 18.92a3.844 3.844 0 0 1 0-5.393l6.653-6.73 1.851 1.873v2.697c-.375.256-.541.73-.41 1.167.133.438.533.737.985.737.453 0 .852-.299.985-.737a1.047 1.047 0 0 0-.41-1.167V9.831l4.781 4.838-6.652 6.726zm11.885-1.354l-1.538-1.556a.572.572 0 0 0-.814 0l-1.538 1.553a2.805 2.805 0 0 0-.592 3.034 2.751 2.751 0 0 0 2.547 1.713 2.751 2.751 0 0 0 2.538-1.718 2.805 2.805 0 0 0-.595-3.03l-.008.004zm-.814 3.107c-.297.302-.7.473-1.121.474a1.601 1.601 0 0 1-1.491-.99 1.632 1.632 0 0 1 .341-1.772l1.15-1.142 1.133 1.145a1.632 1.632 0 0 1-.012 2.285z" opacity=".874"/>
</svg>
