<svg xmlns="http://www.w3.org/2000/svg" width="65" height="60"><path fill="#52CC52" d="M56.41 0H29.094c-4.735 0-8.588 3.834-8.588 8.546v5.02H8.587C3.853 13.566 0 17.401 0 22.112v20.39c0 4.712 3.85 8.547 8.587 8.547h.258v5.501c0 1.399.837 2.649 2.137 3.185.43.178.884.265 1.33.265a3.48 3.48 0 0 0 2.447-1.011l7.975-7.94h13.17c4.734 0 8.587-3.832 8.587-8.546v-2.797l5.747 5.743a3.505 3.505 0 0 0 3.8.705 3.405 3.405 0 0 0 2.117-3.185v-5.49h.258c4.734 0 8.587-3.831 8.587-8.545V8.546C64.997 3.834 61.144 0 56.41 0zM40.977 42.506c0 2.782-2.274 5.046-5.073 5.046H22.005c-.465 0-.913.184-1.244.513l-8.406 8.485V49.3c0-.967-.787-1.748-1.756-1.748H8.587c-2.799 0-5.074-2.264-5.074-5.046v-20.39c0-2.786 2.275-5.05 5.074-5.05h27.317c2.799 0 5.073 2.264 5.073 5.05v20.39zm20.507-13.57c0 2.783-2.275 5.047-5.074 5.047h-2.014c-.97 0-1.757.784-1.757 1.748l.061 7.23-8.212-8.209v-12.64c0-4.711-3.85-8.546-8.587-8.546H24.014v-5.02c0-2.786 2.275-5.05 5.074-5.05h27.316c2.799 0 5.074 2.264 5.074 5.05v20.39h.006z"/></svg>