<svg xmlns="http://www.w3.org/2000/svg" width="58" height="58"><path fill="#AFCE2B" d="M55.942 5.298 52.88 2.236c-2.277-2.276-6.246-2.276-8.522 0l-3.96 3.96-.012.012-.011.011-23.578 23.575c-.26.26-.426.596-.477.957l-1.53 10.717a1.696 1.696 0 0 0 1.914 1.92l10.717-1.53c.362-.05.7-.22.958-.477l23.574-23.578.012-.011.01-.012 3.961-3.96a5.982 5.982 0 0 0 1.766-4.26c0-1.61-.625-3.124-1.76-4.262zM26.384 38.581l-7.92 1.133 1.133-7.923 21.99-21.987 6.787 6.787-21.99 21.99zm27.16-27.159-2.774 2.774-6.788-6.788 2.774-2.774c.997-1 2.731-1 3.726 0l3.062 3.062c.5.497.77 1.161.77 1.865 0 .703-.27 1.364-.77 1.861zm.985 18.99v14.124c0 7.166-5.827 12.993-12.993 12.993H13.289C6.123 57.53.296 51.702.296 44.536V16.289c0-7.166 5.827-12.994 12.993-12.994h14.124a1.694 1.694 0 1 1 0 3.39H13.289c-5.296 0-9.604 4.308-9.604 9.604v28.247c0 5.296 4.308 9.604 9.604 9.604h28.247c5.296 0 9.604-4.308 9.604-9.604V30.412a1.694 1.694 0 1 1 3.39 0z"/></svg>