<svg xmlns="http://www.w3.org/2000/svg" width="22" height="25"><path fill="#0B89FF" d="M17.67 7.13c0-3.497-2.469-6.478-5.83-7.038-3.36-.56-6.62 1.469-7.694 4.787-1.074 3.318.356 6.946 3.374 8.563C3.046 14.89.001 19.15 0 23.97a.65.65 0 0 0 .64.658.65.65 0 0 0 .641-.658c.006-5.357 4.233-9.699 9.45-9.704 3.834-.004 6.94-3.198 6.938-7.135zm-6.936 5.81c-2.288 0-4.352-1.414-5.228-3.585-.877-2.17-.394-4.67 1.224-6.332 1.617-1.662 4.05-2.16 6.165-1.26 2.114.899 3.493 3.017 3.493 5.367-.003 3.205-2.532 5.804-5.654 5.81zm11.24 6.608a.65.65 0 0 1-.64.658h-3.665v3.753a.65.65 0 0 1-.64.658.65.65 0 0 1-.64-.658v-3.753h-3.662a.65.65 0 0 1-.641-.658.65.65 0 0 1 .64-.658h3.662v-3.767a.65.65 0 0 1 .64-.658.65.65 0 0 1 .641.658v3.767h3.665a.65.65 0 0 1 .64.658z" opacity=".874"/></svg>