<svg xmlns="http://www.w3.org/2000/svg" width="28" height="30"><defs><linearGradient id="a" x1="15.468%" x2="84.51%" y1="16.831%" y2="76.361%"><stop offset="0%" stop-color="#FFF"/><stop offset="100%" stop-color="#E8F3FF"/></linearGradient></defs><path fill="url(#a)" d="M13.3 0c7.345 0 13.3 5.999 13.3 13.399 0 7.4-5.955 13.398-13.3 13.398a13.21 13.21 0 0 1-3.815-.56l-4.528 2.704v-5.109A13.41 13.41 0 0 1 0 13.4C0 5.999 5.955 0 13.3 0zm6.438 15.563a.775.775 0 0 0-.963.539c-.706 2.469-2.957 4.193-5.475 4.193s-4.77-1.724-5.476-4.193a.772.772 0 0 0-.964-.54.796.796 0 0 0-.529.984c.897 3.14 3.764 5.336 6.969 5.336 3.205 0 6.07-2.196 6.969-5.336a.797.797 0 0 0-.53-.983z" transform="translate(.7 .706)"/></svg>