<svg xmlns="http://www.w3.org/2000/svg" width="24" height="25"><path fill="#0586FF" d="M12 .196C7.787.195 3.89 2.456 1.757 6.139a12.175 12.175 0 0 0-.124 11.962L.147 23.96a.679.679 0 0 0 .19.662.66.66 0 0 0 .663.15l5.627-1.798a11.754 11.754 0 0 0 13.323-1.807c3.646-3.337 4.888-8.603 3.126-13.25C21.315 3.268 16.912.2 12 .196zm0 22.723c-1.744 0-3.462-.436-5-1.27a.68.68 0 0 0-.267-.078h-.056c-.07 0-.14.012-.207.034l-4.733 1.513L3 18.168a.684.684 0 0 0-.07-.5C.5 13.499 1.145 8.194 4.5 4.744a10.432 10.432 0 0 1 12.729-1.776c4.15 2.402 6.185 7.333 4.958 12.014-1.227 4.681-5.408 7.94-10.187 7.938zm5.38-11.017c0 3.011-2.409 5.453-5.38 5.453s-5.38-2.442-5.38-5.453c0-.373.298-.676.667-.676.368 0 .666.303.666.676 0 2.265 1.812 4.101 4.047 4.101 2.235 0 4.047-1.836 4.047-4.101 0-.373.298-.676.666-.676.369 0 .667.303.667.676z"/></svg>