<svg xmlns="http://www.w3.org/2000/svg" width="54" height="60"><path fill="#F9535A" d="M43.37 17.112C43.375 8.72 37.315 1.565 29.065.222S12.814 3.746 10.178 11.709c-2.635 7.964.874 16.67 8.283 20.553C7.476 35.735.004 45.96 0 57.525c0 .872.704 1.579 1.573 1.579.868 0 1.572-.707 1.572-1.579.013-12.857 10.39-23.276 23.195-23.29 9.411-.008 17.035-7.673 17.03-17.123zM26.348 31.054a13.885 13.885 0 0 1-12.834-8.601 13.984 13.984 0 0 1 3.005-15.197A13.844 13.844 0 0 1 31.652 4.23c5.19 2.158 8.573 7.242 8.573 12.882-.008 7.693-6.215 13.929-13.877 13.942zm27.59 15.86c0 .872-.704 1.58-1.573 1.58H43.37V57.5c0 .872-.704 1.58-1.572 1.58a1.576 1.576 0 0 1-1.573-1.58v-9.008h-8.987a1.576 1.576 0 0 1-1.572-1.579c0-.872.704-1.578 1.572-1.578h8.987v-9.04c0-.872.704-1.579 1.573-1.579.868 0 1.572.707 1.572 1.579v9.04h8.995c.869 0 1.573.706 1.573 1.578z"/></svg>