<svg xmlns="http://www.w3.org/2000/svg" width="40" height="38"><path fill="#BA78ED" d="M14.038 0c-1.118 0-2.12.669-2.524 1.686L.12 30.274c-.442 1.106.393 2.297 1.608 2.297.712 0 1.352-.426 1.611-1.074l3.898-9.783h12.846a12.885 12.885 0 0 1 3.213-3.138l-6.733-16.89C16.159.669 15.157 0 14.038 0zm0 4.651 5.357 13.444H8.682l5.356-13.444zm16.69 15.254c-5.12 0-9.272 4.051-9.272 9.047S25.608 38 30.728 38 40 33.948 40 28.952s-4.152-9.047-9.272-9.047zm0 3.619c1.024 0 1.854.81 1.854 1.81v1.809h1.855c1.023 0 1.854.81 1.854 1.81 0 .998-.83 1.809-1.854 1.809h-1.855v1.81c0 .998-.83 1.809-1.854 1.809s-1.854-.81-1.854-1.81v-1.81h-1.855c-1.023 0-1.854-.81-1.854-1.809 0-.998.83-1.81 1.854-1.81h1.855v-1.809c0-.999.83-1.81 1.854-1.81z"/></svg>